<svg version="1.2" xmlns="http://www.w3.org/2000/svg" viewBox="0 0 735 399" width="735" height="399">
	<title>solala_logo</title>
	<style>
		.s0 { fill: #808080 } 
		.s1 { fill: #000000 } 
	</style>
	<g id="Flower">
		<path id="Rectangle flower" class="s0" d="m-3 234h738v167h-738zm-7 50c-11.6 0-21-8.2-21-18.5 0-10.2 9.4-18.5 21-18.5 11.6 0 21 8.3 21 18.5 0 10.3-9.4 18.5-21 18.5z"/>
	</g>
	<path id="olala" fill-rule="evenodd" class="s1" d="m207 372.7q-5.1-4.9-8-12.3-3-7.6-3.1-17.9-0.1-10.2 2.5-20.7 2.6-10.5 7.4-20.3 4.9-9.7 11.6-18.3 6.8-8.5 15-14.9 17.8-13.6 37-13.6 25.1 0 34.1 22.1 6.3 15.9 0.7 38.6-5.1 20.9-18.8 38.4-13.6 17.4-32 24.8-9.3 3.6-18.3 3.6-8.9 0-16-2.3-7-2.3-12.1-7.2zm23.3-59.2q-3.6 9-5.8 18.5-2.1 9.6-2 18.1 0.1 8.4 2.6 13.3 2.5 4.8 8.2 4.8 5.6 0 11-3.8 5.4-3.9 10.6-10.3 5.1-6.3 9.6-14.6 4.5-8.3 7.9-17.3 7.5-19.7 7.3-35 0-13.4-5.5-17-2.2-1.5-6.3-1.5-3.9 0-9 3.7-5.1 3.5-10.3 9.6-5.1 6.1-9.8 14.3-4.8 8.2-8.5 17.2zm154.4-77.9c-2.2 7.4-1.4 6.2-4.2 14.5l-16.9 49.6q-14.5 42.2-14.5 54.6 0 6.6 5.4 6.6 5.1 0 9.3-2.2 4.2-2.2 5.5-2.2 2.5 0 2.5 2.5 0 10.9-11.1 18.2-7.4 5-13.7 5-6.1 0-9.9-1.4-3.7-1.5-6.8-4.7-3-3.2-5-8-1.8-5-1.8-11.5 0-6.6 2.9-17.6 3.1-11 7.7-25l10.2-30.4c14.6-42.3 11-32 16-53.6 1.6-6.7 26.6-1.9 24.4 5.6zm103 112.9q0 11.3 7.9 11.3 5.5 0 9-1.7 3.7-1.8 4.9-1.8 2.6 0 2.6 2.7 0 10.5-11 18.1-11.6 7.9-23.7 3.9-7.9-2.8-11.7-12.1-1.8-4.7-1.8-8.7 0-6.3 1.2-13.4-11.4 23.2-28.2 32-6.7 3.4-14.3 3.4-7.6 0-13.2-3-5.5-3.2-9.4-8.7-7.9-11.5-7.2-28.8 0.7-21.7 12.8-42.6 11.1-19.5 28.1-31.9 17-12.5 31.7-12.5 14.8 0 23.8 13.5 8.5-13.5 14.9-13.5 7 0 10.5 2.5 6.8 4.9 4.8 8.6-30.6 62.7-31.5 78.1-0.2 2.2-0.2 4.6zm-67.8 0.5q0 14.7 9.4 14.7 7.2 0 17.7-12.2 15.4-18 27.2-48.4 3.8-9.5 6.4-19-0.5-8.3-7-12.2-2.2-1.4-6.6-1.4-4.2 0-10.1 3.2-5.7 3.2-11.2 8.7-5.4 5.5-10.2 13-4.6 7.5-8.1 16.3-7.5 18.8-7.5 37.3zm169.8-112.7c-2.2 7.4-1.2 5.5-4 13.8l-16.9 49.6q-14.5 42.2-14.5 54.6 0 6.6 5.4 6.6 5.1 0 9.3-2.2 4.2-2.2 5.5-2.2 2.5 0 2.5 2.5 0 10.9-11.1 18.2-7.4 5-13.7 5-6.1 0-9.9-1.4-3.7-1.5-6.8-4.7-3-3.2-5-8-1.8-5-1.8-11.5 0-6.6 2.9-17.6 3.1-11 7.7-25l10.2-30.4c14.6-42.3 11.6-30.2 16.2-53 1.6-8.3 26.2-1.8 24 5.7zm103.2 112.2q0 11.3 7.9 11.3 5.5 0 9-1.7 3.7-1.8 4.9-1.8 2.6 0 2.6 2.7 0 10.5-11 18.1-11.6 7.9-23.7 3.9-7.9-2.8-11.7-12.1-1.8-4.7-1.8-8.7 0-6.3 1.2-13.4-11.4 23.2-28.2 32-6.7 3.4-14.3 3.4-7.6 0-13.2-3-5.5-3.2-9.4-8.7-7.9-11.5-7.2-28.8 0.7-21.7 12.8-42.6 11.1-19.5 28.1-31.9 17-12.5 31.7-12.5 14.8 0 23.8 13.5 8.5-13.5 14.9-13.5 7 0 10.5 2.5 6.8 4.9 4.8 8.6-30.6 62.7-31.5 78.1-0.2 2.2-0.2 4.6zm-67.8 0.5q0 14.7 9.4 14.7 7.2 0 17.7-12.2 15.4-18 27.2-48.4 3.8-9.5 6.4-19-0.5-8.3-7-12.2-2.2-1.4-6.6-1.4-4.2 0-10.1 3.2-5.7 3.2-11.2 8.7-5.4 5.5-10.2 13-4.6 7.5-8.1 16.3-7.5 18.8-7.5 37.3z"/>
	<path id="S" class="s1" d="m63.5 290l-2.2 18.8q0 29.6 19.8 40.3 6.8 3.7 16.4 3.7 9.5 0 17-3.2 7.6-3.4 12.5-8.8 10.3-11 10.3-25.4 0-14.4-5.9-26.1-5.9-11.7-14.7-23.4l-19.5-24q-23.7-28.3-31.7-51.5-8.1-23.4-8.1-42.9 0-19.6 4.7-36.9 4.8-17.6 13.4-33.2 8.5-15.9 20.5-29.1 12-13.2 26.6-22.7 30.5-20.5 60.6-20.5 30 0 46.8 8.3 16.9 8.3 27.1 21 19.1 23.9 19.1 57.9 0 31.5-17.9 59.3-16.3 25.4-36.6 32.2-4.4 2.2-12.2 2.2-7.5 0-12.9-2.2-5.1-2.4-9.1-6.3-8.5-8.6-8.5-18.6 0-6.8 4.2-9 18.5-10 32.2-29.1 14.9-20.7 15.6-41.2 0.7-20.8-10-30.5-10.5-10-28.1-10-17.6 0-31.7 8-14.2 7.8-24.4 21.2-22 28.9-22 68.2 0 26.1 18.1 55.1 7.5 12.5 16.3 24.7 9 12 16.9 24.7 17.8 29.5 17.8 52.9 0 23.5-8.6 39.6-8.3 16.1-22.2 28.1-30 25.8-68.3 25.8-36.2 0-55.7-21.4-15.6-17.4-15.6-37.6 0-22 12.4-37.1 9.5-11.5 18.3-13.7 19.3-5.1 19.3 12.4z"/>
	<path id="Leaf right" class="s1" d="m648.2 106q-17.8 8-27.7 20.3-9.8 12.2-16.2 33.7-0.9 3.2-2.8 11.1-2 7.9-3.3 12.1-0.9 3.2-3.3 4.3-2.5 1.2-5.4-0.4-2.9-1.5-4.4-4.7-1.3-3-0.7-6.4 4.3-22.1 10.6-37.6 6.3-15.5 17.8-28.1 11.4-12.6 28.2-20.2 2.5-1.1 5.4 0.4 2.9 1.5 4.4 4.7 1.5 3.3 0.7 6.4-0.8 3.2-3.3 4.4zm35.2-69.5q-4.1-6.8-9.3-14.3-5.3-7.5-11-11.8-5.6-4.3-9.4-2.6-2.3 1.1-4 2.5-1.6 1.4-2.6 3.6-1.1 2.2-1.6 3.7-0.4 1.5-1.3 4.8-0.8 3.2-1.2 4.9-1.7 6.3-7.8 12-6.2 5.7-14.6 10.2-8.4 4.5-17.1 8.6-8.6 4.2-17 9.1-8.3 4.9-12.6 9.6-8.6 9.2-14.6 20.8-5.9 11.6-8.8 24.8-2.8 13.2-1.2 28.1 1.7 14.9 8.2 29.2 2.9 6.6 6.7 12.5 0.7 1.1 4 4.7 3.3 3.6 3.5 4.1 1.1 2.4-0.3 7.3-1.4 5-3.5 10-2.1 5-2.9 11.1-0.9 6.2 1.1 10.5 0.4 0.9 0.9 1.6 0.5 0.7 0.8 1 0.3 0.4 1.1 1 0.8 0.7 1.2 1.1 3.3 2.9 5 4.1 1.7 1.1 4.4 1.6 2.6 0.4 5.5-0.9 2.9-1.3 4.1-6.6 1.2-5.4 1.2-11-0.1-5.7 0.4-10.7 0.5-5 2.1-5.7 2.2-1 11.4 0.3 9.2 1.4 10.9 1.4 16.1-0.3 30.5-6.8 21.9-9.9 36.6-32.8 15.2-23.2 19.8-49 4.6-25.8-3.6-55.6-3.5-13-8.9-24.8-2.1-4.7-6.1-11.6z"/>
	<path id="Leaf left" class="s1" d="m443.2 106q-17.8 8-27.7 20.3-9.8 12.2-16.2 33.7-0.9 3.2-2.8 11.1-2 7.9-3.3 12.1-0.9 3.2-3.3 4.3-2.5 1.2-5.4-0.4-2.9-1.5-4.4-4.7-1.3-3-0.7-6.4 4.3-22.1 10.6-37.6 6.3-15.5 17.8-28.1 11.4-12.6 28.2-20.2 2.5-1.1 5.4 0.4 2.9 1.5 4.4 4.7 1.5 3.3 0.7 6.4-0.8 3.2-3.3 4.4zm35.2-69.5q-4.1-6.8-9.3-14.3-5.3-7.5-11-11.8-5.6-4.3-9.4-2.6-2.3 1.1-4 2.5-1.6 1.4-2.6 3.6-1.1 2.2-1.6 3.7-0.4 1.5-1.3 4.8-0.8 3.2-1.2 4.9-1.7 6.3-7.8 12-6.2 5.7-14.6 10.2-8.4 4.5-17.1 8.6-8.6 4.2-17 9.1-8.3 4.9-12.6 9.6-8.6 9.2-14.6 20.8-5.9 11.6-8.8 24.8-2.8 13.2-1.2 28.1 1.7 14.9 8.2 29.2 2.9 6.6 6.7 12.5 0.7 1.1 4 4.7 3.3 3.6 3.5 4.1 1.1 2.4-0.3 7.3-1.4 5-3.5 10-2.1 5-2.9 11.1-0.9 6.2 1.1 10.5 0.4 0.9 0.9 1.6 0.5 0.7 0.8 1 0.3 0.4 1.1 1 0.8 0.7 1.2 1.1 3.3 2.9 5 4.1 1.7 1.1 4.4 1.6 2.6 0.4 5.5-0.9 2.9-1.3 4.1-6.6 1.2-5.4 1.2-11-0.1-5.7 0.4-10.7 0.5-5 2.1-5.7 2.2-1 11.4 0.3 9.2 1.4 10.9 1.4 16.1-0.3 30.5-6.8 21.9-9.9 36.6-32.8 15.2-23.2 19.8-49 4.6-25.8-3.6-55.6-3.5-13-8.9-24.8-2.1-4.7-6.1-11.6z"/>
</svg>