<svg version="1.2" xmlns="http://www.w3.org/2000/svg" viewBox="0 0 114 220" width="114" height="220">
	<title>scroll_right</title>
	<style>
		.s0 { fill: #126760 } 
	</style>
	<path id="Path 0" class="s0" d="m21.1 0.2c5.2 0.2 7.4 0.8 10.5 3 2.1 1.5 19.2 18.1 38 37 31.6 31.7 34.4 34.9 37.8 41.8 2 4.1 4.3 10 5.1 13 0.8 3 1.5 9.4 1.5 14.3 0 4.8-0.5 11.1-1.1 14-0.6 2.8-2.9 9-5.1 13.7-4 8.3-4.8 9.3-38.2 42.8-18.7 18.9-35.9 35.5-38 37-3.4 2.4-4.9 2.7-11.6 2.7-6.4 0-8.2-0.4-11.1-2.3-1.9-1.3-4.5-4-5.9-6-1.8-2.6-2.6-5.2-2.9-9.6-0.2-3.7 0.2-7.4 1-9.4 0.9-1.9 15.5-17.4 36-38 33.7-33.7 34.7-34.8 35.7-39.7 0.6-3.3 0.6-6.6 0-9.5-0.9-4.2-3.7-7.2-35.7-39.2-19-19.1-35.1-36-35.8-37.5-0.7-1.6-1.2-5.2-1.3-8 0-2.9 0.6-6.8 1.4-8.5 0.7-1.8 2.6-4.6 4.2-6.2 1.6-1.6 4.3-3.5 5.9-4.3 1.8-0.8 5.6-1.2 9.6-1.1z"/>
</svg>