<svg version="1.2" xmlns="http://www.w3.org/2000/svg" viewBox="0 0 220 114" width="220" height="114">
	<title>scroll_up</title>
	<style>
		.s0 { fill: #126760 } 
	</style>
	<path id="Path 0" class="s0" d="m109.5 0.1c6.1 0 12.3 0.5 16 1.5 3.3 0.9 9.2 3.2 13 5.2 6.1 3.1 11.3 7.8 41.3 37.6 18.9 18.8 35.5 35.9 37 38 2.4 3.4 2.7 4.9 2.7 11.6 0 6.4-0.4 8.2-2.3 11.1-1.3 1.9-4 4.5-6 5.9-2.6 1.8-5.2 2.6-9.6 2.9-3.7 0.2-7.4-0.2-9.4-1-1.9-0.8-17.6-15.7-38-36-32-32-35-34.8-39.2-35.7-2.9-0.6-6.2-0.6-9.5 0-4.9 1-6 2-39.7 35.7-20.6 20.5-36.1 35.1-38 36-2 0.8-5.7 1.2-9.4 1-4.4-0.3-7-1.1-9.6-2.9-2-1.4-4.7-4-6-5.9-1.9-2.9-2.3-4.7-2.3-11.1 0-6.7 0.3-8.2 2.7-11.6 1.5-2.1 18.1-19.2 37-38 31.7-31.5 34.9-34.4 41.8-37.8 4.1-2 9.8-4.3 12.5-5 2.8-0.8 9.5-1.5 15-1.5z"/>
</svg>