<svg version="1.2" xmlns="http://www.w3.org/2000/svg" viewBox="0 0 220 114" width="220" height="114">
	<title>scroll_down</title>
	<style>
		.s0 { fill: #126760 } 
	</style>
	<path id="Path 0" class="s0" d="m20 0.1c3 0 6.8 0.5 8.3 1.2 1.5 0.7 18.4 16.8 37.5 35.8 32.1 32.1 35 34.8 39.2 35.7 2.9 0.6 6.2 0.6 9.5 0 4.9-1 6-2 39.7-35.7 20.4-20.3 36.1-35.2 38-36 2-0.8 5.7-1.2 9.4-1 4.4 0.3 7 1.1 9.6 2.9 2 1.4 4.7 4 6 5.9 1.9 2.9 2.3 4.7 2.3 11.1 0 6.7-0.3 8.2-2.7 11.6-1.5 2.1-18.1 19.2-37 38-29.9 29.6-35.2 34.5-41.3 37.6-3.9 2-9.9 4.4-13.5 5.2-3.6 0.9-10.2 1.6-14.8 1.6-4.5 0-10.6-0.5-13.5-1.1-2.8-0.6-9-2.9-13.7-5.1-8.3-4-9.3-4.8-42.8-38.2-18.9-18.7-35.5-35.9-37-38-1.9-2.8-2.8-5.5-3.1-9.5-0.2-3.1 0.1-7.2 0.7-9.1 0.7-1.9 2.6-5 4.4-6.9 1.8-1.9 4.6-4 6.3-4.7 1.6-0.7 5.5-1.3 8.5-1.3z"/>
</svg>