<svg version="1.2" xmlns="http://www.w3.org/2000/svg" viewBox="0 0 512 512" width="512" height="512">
	<title>calendar</title>
	<style>
		.s0 { fill: #ffffff } 
	</style>
	<path id="Path 0" fill-rule="evenodd" class="s0" d="m119.3 0c4.7 0 9.2 0.6 11.5 1.6 2 0.8 5 2.7 6.5 4.2 1.6 1.5 3.8 4.5 5 6.7 1.5 3 2.1 6.3 2.7 21.5h222l0.3-8.8c0.3-6.4 0.9-9.7 2.4-12.7 1.2-2.2 3.4-5.2 5-6.7 1.5-1.5 4.5-3.4 6.6-4.2 2.2-1 6.7-1.6 11.5-1.6 6.9 0 8.2 0.3 13.2 3.2 4.3 2.6 6 4.5 8.2 8.8 2.5 4.7 2.9 6.6 2.8 22l41.6 0.5 6.4 3.2c4.4 2.1 8.2 5 11.8 9 3.1 3.3 6.3 8.1 9.7 16.8l0.3 206c0.2 152.2 0 207.6-0.9 212-0.6 3.3-2.1 8-3.4 10.5-1.2 2.5-4.4 6.7-7.1 9.3-2.7 2.7-7.4 6-15.9 10.2h-407l-5.5-2.7c-3-1.5-7.7-4.8-10.4-7.5-2.7-2.6-5.9-6.8-7.1-9.3-1.3-2.5-2.8-7.2-3.4-10.5-0.9-4.4-1.1-59.8-0.6-418l2.2-5.5c1.2-3.2 4.4-8 7.5-11.3 3.6-4 7.4-6.9 18.2-12.2l41.6-0.5v-8.3c-0.1-7.1 0.3-9 2.8-13.7 2.2-4.3 3.9-6.2 8.2-8.8 5-2.9 6.3-3.2 13.3-3.2zm-6.7 18.3c-1.1 1.5-1.6 4.4-1.6 8.9v6.8h18c0-11.8-0.4-13.4-2.2-15.5-1.3-1.4-3.6-2.7-5.3-2.9-1.7-0.2-4-0.2-5.2 0.1-1.2 0.2-2.9 1.4-3.7 2.6zm272 0.9c-1.1 1.5-1.6 4.4-1.6 8.5v6.3h18c0.1-11.8-0.4-14.1-1.7-15.7-1-1.2-3.4-2.4-5.3-2.7-1.9-0.3-4.5-0.1-5.6 0.4-1.2 0.5-2.9 1.9-3.8 3.2zm-339.6 41.3l-3.5 4.8-0.5 75.7c64.3 0 83.8 0.4 84.8 0.9 0.9 0.4 2.3 2.1 3.1 3.7 1 2.2 1.1 3.6 0.2 5.9-0.6 1.6-2.2 3.6-3.6 4.2-1.9 1-12.7 1.3-43.5 1.3h-41v291.5c4.1 8.7 6.5 11.5 9.3 13.5 2.3 1.7 6.5 3.5 9.2 4 3.2 0.7 57.1 0.9 152.5 0.8l147.5-0.3c5.4-3.3 8.1-6 9.5-8.1l2.5-3.9c1-62.3 1.1-64.2 3.2-68.5 1.2-2.5 4.1-6.5 6.5-9 2.4-2.4 6.8-5.6 9.8-7 5.4-2.5 5.8-2.5 37.5-3l32-0.5c5.3-3.9 7.7-6.8 8.7-9 1.6-3.8 1.8-10 1.8-102.3v-98.2h-322c-4.1-4.1-5-6.1-5-8 0-1.8 0.9-4 2.5-5.5l2.4-2.5h322.1l-0.5-75.7c-5.2-8.4-7.4-10.4-11.5-12.5l-5.5-2.9-70.5 0.1c0 17.8 0.5 23 1.3 24.5 0.6 1.4 2.2 2.9 3.5 3.5 1.2 0.5 3.1 1 4.2 1 1.1 0 2.9 0.9 4 2 1.2 1.2 2 3.4 2 5.2 0.1 1.8-0.7 4.4-1.7 5.7-1.5 2-2.7 2.4-6.8 2.3-2.9 0-6.6-0.8-9-2-2.2-1.1-5.2-3.3-6.6-4.9-1.5-1.5-3.5-4.4-4.5-6.3-1.5-2.8-1.9-6.2-2.1-17.3l-0.3-13.7h-256c-0.1 22.7 0.2 24.8 1.7 26.2 1 1 3.6 2.1 5.7 2.5 2.4 0.5 4.6 1.8 5.8 3.3 1 1.4 1.9 3.4 1.8 4.5 0 1.1-0.7 3-1.5 4.2-0.8 1.3-2.6 2.8-4 3.3-1.7 0.7-4.1 0.7-7.2 0-2.7-0.5-6.6-2.2-8.8-3.8-2.5-1.7-5-4.8-6.8-8.2-2.6-5.2-2.7-6.3-2.7-18.8v-13.2c-36.6 0-36.7 0-41.6 2.8-2.9 1.6-6.4 4.8-8.4 7.7zm345.6 329.8c-2 2.7-2.1 4.6-2.6 33.5-0.3 16.9-0.5 30.8-0.5 30.9 0 0.1 16.2-16 36-35.7l36-36c-57.1 0-58.1 0.1-62.4 2.2-2.5 1.3-5.4 3.6-6.5 5.1zm39.9 44.5c-35.2 35.5-40.8 40.7-46.5 43.5l-6.5 3.2h-325c-8.5-4.2-11.2-5.2-11.5-4.9-0.3 0.2 0.4 2.5 1.5 5.2 1 2.6 2.9 5.8 4 7.2 1.2 1.4 4.4 3.6 7.1 5l4.9 2.5c320.9 0.4 390.8 0.2 394-0.5 2.7-0.5 6.9-2.3 9.2-4 2.8-2 5.2-4.8 6.8-8.3l2.5-5.2-0.5-84zm-326.5-248.5c21 0.2 22.7 0.4 25.5 2.3 1.6 1.2 3.8 3.8 4.7 5.8 1.5 3.1 1.8 6.7 1.8 24.9 0 18.9-0.2 21.6-1.9 24.7-1.1 2.1-3.6 4.4-6.2 5.8-4.3 2.3-5.1 2.3-26.1 2-20.3-0.3-21.9-0.4-24.5-2.4-1.5-1.2-3.7-3.3-4.8-4.8-1.9-2.5-2-4.5-2.3-24.4-0.2-19.9-0.1-22 1.7-25.7 1.2-2.3 3.6-4.9 5.8-6.2 3.7-2.2 4.5-2.3 26.3-2zm-18 49.7h34v-34h-34zm118.7-49.9c19.3-0.1 21.7 0.1 25.3 1.9q4 2 6 6c1.8 3.7 2 6 1.9 25.3 0 20.1-0.1 21.4-2.2 25-1.3 2.3-3.8 4.6-6.2 5.8-3.6 1.7-6.3 1.9-24.5 1.9-18.4 0-21-0.2-24.8-2-3.1-1.5-4.7-3.1-6.2-6.2-1.8-3.8-2-6.4-2-24.8 0-18.2 0.2-20.9 2-24.5 1.1-2.4 3.4-4.9 5.7-6.2 3.6-2.1 4.9-2.2 25-2.2zm-16.7 49.9h34v-34h-34zm119-49.9c20.4 0 21.7 0.1 25.3 2.2 2.3 1.3 4.6 3.8 5.7 6.2 1.7 3.6 2 6.3 2 24.5 0 18.4-0.3 21-2 24.8-1.5 3.1-3.1 4.7-6.3 6.2-3.8 1.8-6.4 2-24.7 2-18.2 0-21-0.2-24.5-1.9-2.4-1.2-4.9-3.5-6.2-5.8-2.1-3.6-2.3-4.9-2.3-25 0-19.3 0.2-21.6 2-25.3 1.2-2.5 3.4-4.7 5.7-5.9 3.4-1.8 5.9-2 25.3-2zm-17 49.9h34v-34h-34zm118.5-49.9c18.9 0 21.4 0.2 25.2 1.9 3.2 1.5 4.8 3.1 6.3 6.3 1.9 3.9 2 5.9 1.8 25.9-0.3 20.3-0.5 21.9-2.4 24.5-1.2 1.6-3.4 3.7-4.9 4.8-2.4 1.9-4.4 2-24.1 2.3-19.6 0.2-21.8 0.1-25.9-1.8-3.3-1.4-5-3-6.5-6-1.9-3.7-2-5.7-1.8-26.2 0.3-21.1 0.4-22.4 2.5-25.4 1.2-1.7 3.6-3.8 5.5-4.7 2.7-1.3 7-1.6 24.3-1.6zm-16.5 49.9h34v-34h-34zm-289 43c18.5 0 22 0.3 24.9 1.8 1.9 0.9 4.4 3 5.5 4.5 1.9 2.7 2.1 4.5 2.4 25.5 0.3 22.3 0.3 22.8-2 26.1-1.3 1.9-3.6 4.4-5.1 5.5-2.7 2-4.1 2.1-25.7 2.1-21.8 0-23-0.1-25.7-2.1-1.5-1.2-3.7-3.3-4.8-4.8-1.8-2.5-2-4.5-2.6-46.1l2.7-4.3c1.5-2.3 4.1-5.2 5.8-6.2 2.8-1.8 5-2 24.6-2zm-17 50h34v-34h-34zm119-49.9c18.5-0.1 22 0.2 24.9 1.7 1.9 0.9 4.4 3 5.5 4.6 2 2.6 2.1 4.1 2.1 26.1 0 22.3-0.1 23.5-2.1 26.2-1.2 1.6-3.4 3.7-4.9 4.8-2.5 1.9-4.2 2-25.5 2-21.8 0-23-0.1-25.7-2.1-1.5-1.2-3.7-3.3-4.8-4.8-1.9-2.5-2-4.3-2-25.9 0-22.7 0-23.2 2.3-26.5 1.3-1.9 3.8-4 5.5-4.7 2.3-1 8.9-1.4 24.7-1.4zm-17 49.9h34v-34h-34zm118.7-50c15.3 0 22.2 0.4 24.5 1.3 1.8 0.8 4.4 2.9 5.8 4.8 2.5 3.4 2.5 3.5 2.5 26.6 0 22.1-0.1 23.3-2.1 26-1.2 1.6-3.4 3.7-4.9 4.8-2.5 1.9-4.2 2-25.5 2-21.8 0-23-0.1-25.7-2.1-1.5-1.2-3.7-3.3-4.8-4.8-1.9-2.5-2-4.3-2-26.1 0-22 0.1-23.5 2.1-26.1 1.1-1.6 3.6-3.7 5.5-4.6 2.9-1.5 6.4-1.8 24.6-1.8zm-16.7 50h34v-34h-34zm118.5-47.9c18.9 0 21.4 0.2 25.2 1.9 3.2 1.5 4.8 3.1 6.3 6.3 1.9 3.9 2 5.9 1.8 25.9-0.3 20.3-0.5 21.9-2.4 24.5-1.2 1.6-3.4 3.7-4.9 4.8-2.4 1.9-4.4 2-24.1 2.3-19.6 0.2-21.8 0.1-25.9-1.8-3.3-1.4-5-3-6.5-6-1.9-3.7-2-5.7-1.8-26.2 0.3-21.1 0.4-22.4 2.5-25.4 1.2-1.7 3.6-3.8 5.5-4.7 2.7-1.3 7-1.6 24.3-1.6zm-16.5 49.9h34v-34h-34zm-289.1 41c21.9 0 22.7 0 26.1 2.3 1.9 1.2 4.3 3.8 5.2 5.7 1.5 3 1.8 6.5 1.8 24.5 0 18-0.3 21.5-1.8 24.5-0.9 1.9-3.3 4.5-5.2 5.8-3.4 2.2-4.2 2.3-26 2.3-21.8 0-22.6-0.1-25.9-2.3-1.9-1.2-4.2-3.8-5.3-5.8-1.6-3.1-1.8-5.9-1.8-24.5 0-18.5 0.2-21.4 1.8-24.5 1.1-1.9 3.4-4.5 5.2-5.7 3.2-2.2 4.2-2.3 25.9-2.3zm-16.9 50h34v-35h-34zm118.9-50c21.9 0 22.7 0 26.1 2.3 1.9 1.2 4.3 3.8 5.2 5.7 1.5 3 1.8 6.5 1.8 24.5 0 18-0.3 21.5-1.8 24.5-0.9 1.9-3.3 4.5-5.2 5.8-3.4 2.2-4.2 2.3-26 2.3-21.8 0-22.6-0.1-26-2.3-1.9-1.3-4.3-3.9-5.3-5.8-1.5-3-1.7-6.5-1.7-24.5 0-18 0.2-21.5 1.7-24.5 1-1.9 3.3-4.5 5.2-5.7 3.3-2.2 4.2-2.3 26-2.3zm-16.9 50h34v-35h-34zm118.9-50c21.9 0 22.7 0 26.1 2.3 1.9 1.2 4.3 3.8 5.2 5.7 1.5 3 1.8 6.5 1.8 24.5 0 18-0.3 21.5-1.8 24.5-0.9 1.9-3.3 4.5-5.2 5.8-3.4 2.2-4.2 2.3-26 2.3-20.7-0.1-22.8-0.2-25.8-2.1-1.8-1.1-3.9-3-4.7-4.2-0.8-1.3-1.8-3.8-2.2-5.8-0.5-2.4-0.2-4.3 1-6.2 0.9-1.5 2.8-3.2 4.2-3.8q2.5-1 5 0c1.4 0.6 3.3 2.4 6 7h33.5v-35h-34l-0.3 7c-0.1 5.1-0.7 7.4-2 8.7-1.1 1.1-3.3 1.8-5.8 1.8-3.2 0-4.5-0.5-6-2.5-1.6-2-2-4-2-10.5 0.1-5.5 0.6-9 1.8-11.5 1-1.9 3.3-4.5 5.2-5.7 3.3-2.2 4.2-2.3 26-2.3z"/>
</svg>