<svg version="1.2" xmlns="http://www.w3.org/2000/svg" viewBox="0 0 114 220" width="114" height="220">
	<title>scroll_left</title>
	<style>
		.s0 { fill: #ffffff } 
	</style>
	<path id="Path 0" class="s0" d="m95.1 0.2c4.9 0.2 7.4 0.9 10 2.6 1.9 1.3 4.5 4 5.9 6 1.8 2.6 2.6 5.2 2.9 9.6 0.2 3.7-0.2 7.4-1 9.4-0.9 1.9-15.5 17.4-36 38-32.1 32.1-34.8 35-35.7 39.2-0.6 2.9-0.6 6.2 0 9.5 1 4.9 1.9 5.9 35.6 39.7 20.9 20.9 35.2 36 36.1 38 0.8 2 1.2 5.8 1 9.4-0.3 4.2-1.1 7-2.7 9.5-1.3 1.9-4 4.5-6 5.9-3 2.1-4.7 2.5-11.2 2.5-6.7 0-8.2-0.3-11.6-2.7-2.1-1.5-19.2-18.1-38-37-31.6-31.7-34.4-34.9-37.8-41.8-2-4.1-4.3-10-5.1-13-0.8-3-1.5-9.8-1.5-15 0-5.2 0.7-12 1.5-15 0.8-3 3.1-8.9 5.1-13 3.4-7 6.1-10 39.3-43.2 21.4-21.5 37-36.3 39.1-37.3 2.3-1 5.8-1.4 10.1-1.3z"/>
</svg>